<?xml version="1.0" encoding="UTF-8" standalone="no"?>
<svg
   xmlns:dc="http://purl.org/dc/elements/1.1/"
   xmlns:cc="http://creativecommons.org/ns#"
   xmlns:rdf="http://www.w3.org/1999/02/22-rdf-syntax-ns#"
   xmlns:svg="http://www.w3.org/2000/svg"
   xmlns="http://www.w3.org/2000/svg"
   xmlns:sodipodi="http://sodipodi.sourceforge.net/DTD/sodipodi-0.dtd"
   xmlns:inkscape="http://www.inkscape.org/namespaces/inkscape"
   width="100"
   height="100"
   viewBox="0 0 99.999999 99.999999"
   id="svg4205"
   version="1.1"
   inkscape:version="0.91 r13725"
   sodipodi:docname="soundcloud.svg">
  <metadata
     id="metadata4218">
    <rdf:RDF>
      <cc:Work
         rdf:about="">
        <dc:format>image/svg+xml</dc:format>
        <dc:type
           rdf:resource="http://purl.org/dc/dcmitype/StillImage" />
        <dc:title />
      </cc:Work>
    </rdf:RDF>
  </metadata>
  <defs
     id="defs4216" />
  <sodipodi:namedview
     pagecolor="#ffffff"
     bordercolor="#666666"
     borderopacity="1"
     objecttolerance="10"
     gridtolerance="10"
     guidetolerance="10"
     inkscape:pageopacity="0"
     inkscape:pageshadow="2"
     inkscape:window-width="1280"
     inkscape:window-height="752"
     id="namedview4214"
     showgrid="false"
     inkscape:zoom="2.2100339"
     inkscape:cx="-18.704643"
     inkscape:cy="36.078756"
     inkscape:window-x="87"
     inkscape:window-y="100"
     inkscape:window-maximized="0"
     inkscape:current-layer="svg4205" />
  <linearGradient
     id="SVGID_1_"
     gradientUnits="userSpaceOnUse"
     x1="46.492699"
     y1="0"
     x2="46.492699"
     y2="53.006302">
    <stop
       offset="0"
       style="stop-color: #F79810"
       id="stop4208" />
    <stop
       offset="1"
       style="stop-color: #F8310E"
       id="stop4210" />
  </linearGradient>
  <rect
     style="fill:#ff7000;fill-opacity:0.94117647;stroke:none;stroke-width:9;stroke-linecap:round;stroke-linejoin:bevel;stroke-miterlimit:4;stroke-dasharray:none;stroke-dashoffset:0;stroke-opacity:1"
     id="rect4220"
     width="100"
     height="100"
     x="0"
     y="3.5527137e-15" />
  <path
     d="m 9.8673029,53.49796 c -0.1713431,0 -0.3073577,0.132482 -0.329438,0.32149 L 8.937281,58.381238 9.5378649,62.86442 c 0.02208,0.189008 0.1580949,0.320606 0.329438,0.320606 0.1660441,0 0.3011751,-0.130715 0.3276711,-0.318839 l 0,0 0,-8.83e-4 0,8.83e-4 0.711869,-4.484949 -0.711869,-4.562672 C 10.169361,53.630442 10.032463,53.49796 9.8673029,53.49796 Z m 3.3774011,-2.492423 c -0.02826,-0.196073 -0.168693,-0.331204 -0.341803,-0.331204 -0.173992,0 -0.317956,0.139547 -0.341803,0.331204 0,0.0018 -0.807255,7.375701 -0.807255,7.375701 l 0.807255,7.212306 c 0.02296,0.193424 0.166927,0.332971 0.341803,0.332971 0.172227,0 0.312657,-0.136014 0.34092,-0.331204 l 0.91854,-7.214073 z m 12.721781,-6.803379 c -0.331204,0 -0.605,0.271146 -0.620897,0.615598 l -0.642979,13.569664 0.642979,8.769409 c 0.01678,0.342686 0.289693,0.612949 0.620897,0.612949 0.329438,0 0.602351,-0.271146 0.621781,-0.614715 l 0,0.0026 0.726884,-8.770292 -0.726884,-13.569664 c -0.01943,-0.344452 -0.292343,-0.615598 -0.621781,-0.615598 z m -6.584343,4.71635 c -0.254365,0 -0.461919,0.203139 -0.482233,0.474285 l -0.724234,8.991094 0.724234,8.698752 c 0.01943,0.26938 0.227868,0.472519 0.482233,0.472519 0.251716,0 0.45927,-0.203139 0.481351,-0.472519 l 0.823153,-8.698752 -0.823153,-8.992861 c -0.02208,-0.269379 -0.229635,-0.472518 -0.481351,-0.472518 z m 13.275555,18.850387 c 0.410693,0 0.744547,-0.331205 0.761329,-0.755146 l 0.630613,-8.621913 -0.62973,-18.066095 c -0.01678,-0.423941 -0.350635,-0.755146 -0.761329,-0.755146 -0.414226,0 -0.748963,0.332088 -0.762211,0.75603 0,8.83e-4 -0.559073,18.064328 -0.559073,18.064328 l 0.559073,8.625445 c 0.01325,0.420409 0.347985,0.752497 0.761328,0.752497 z m 13.698613,0.04063 c 0.565256,0 1.031591,-0.465452 1.04219,-1.037773 l 0,0.0062 0,-0.0062 0.439839,-8.374613 L 47.3985,37.532146 c -0.0097,-0.571438 -0.476934,-1.037774 -1.04219,-1.037774 -0.566139,0 -1.033357,0.465453 -1.04219,1.038657 L 44.921091,58.39007 c 0,0.01325 0.393029,8.386978 0.393029,8.386978 0.0088,0.567022 0.476935,1.032474 1.04219,1.032474 z m -6.901416,-0.03268 c 0.491949,0 0.888511,-0.394796 0.901759,-0.898227 l 0,0.0062 0.535227,-8.491197 -0.53611,-18.19681 c -0.01325,-0.503431 -0.40981,-0.897343 -0.901759,-0.897343 -0.495482,0 -0.892044,0.393912 -0.902642,0.897343 l -0.476052,18.197693 0.476935,8.489431 c 0.0106,0.498131 0.40716,0.892927 0.902642,0.892927 z m -16.793387,-0.07949 c 0.292343,0 0.529044,-0.234051 0.551124,-0.542292 l 0.77546,-8.771176 -0.77546,-8.3437 c -0.0212,-0.308241 -0.257897,-0.540526 -0.551124,-0.540526 -0.296759,0 -0.53346,0.234051 -0.552007,0.544059 l -0.682723,8.340167 0.682723,8.770292 c 0.01943,0.309125 0.255248,0.543176 0.552007,0.543176 z m -6.532233,-0.480468 c 0.213737,0 0.386846,-0.168693 0.411576,-0.401861 l 0.870847,-8.432905 -0.869963,-8.750861 c -0.02561,-0.234051 -0.198723,-0.402745 -0.41246,-0.402745 -0.216387,0 -0.389497,0.169577 -0.411577,0.402745 0,8.83e-4 -0.766628,8.750861 -0.766628,8.750861 l 0.766628,8.431139 c 0.0212,0.234051 0.194307,0.403627 0.411577,0.403627 z m 26.76308,-27.323036 c -0.534343,0 -0.962701,0.424825 -0.973299,0.968883 l -0.43454,17.532635 0.43454,8.436438 c 0.0106,0.536993 0.438073,0.961818 0.973299,0.961818 0.53346,0 0.959168,-0.423942 0.971533,-0.968 l 0,0.0071 0.487533,-8.436438 -0.487533,-17.535284 c -0.01237,-0.542292 -0.438073,-0.967117 -0.971533,-0.967117 z M 29.299726,67.786559 c 0.369183,0 0.673891,-0.301175 0.691555,-0.685372 L 30.669588,58.39007 29.991281,41.7168 c -0.01855,-0.38508 -0.322372,-0.685372 -0.691555,-0.685372 -0.372715,0 -0.67654,0.301175 -0.692438,0.685372 0,8.83e-4 -0.600584,16.67327 -0.600584,16.67327 l 0.601467,8.71465 c 0.01501,0.380664 0.31884,0.681839 0.691555,0.681839 z m 7.574424,-0.82227 0,-0.0044 0.582919,-8.567153 -0.582919,-18.674628 c -0.01413,-0.463686 -0.379781,-0.827569 -0.831103,-0.827569 -0.45397,0 -0.81962,0.363 -0.831985,0.827569 l -0.517562,18.673744 0.518445,8.57157 c 0.01236,0.45927 0.378015,0.82227 0.831102,0.82227 0.452205,0 0.816088,-0.363 0.831103,-0.82492 z M 80.96231,47.628136 c -1.383993,0 -2.704394,0.279978 -3.907328,0.784292 -0.803723,-9.104146 -8.438205,-16.245796 -17.750789,-16.245796 -2.278686,0 -4.499963,0.448672 -6.461576,1.20735 -0.762212,0.294993 -0.965351,0.598818 -0.972416,1.18792 l 0,32.060584 c 0.0079,0.618248 0.487533,1.133161 1.090766,1.194102 0.02561,0.0027 27.820285,0.01678 28.00046,0.01678 5.578365,0 10.101292,-4.522927 10.101292,-10.102175 0,-5.579248 -4.522044,-10.103058 -10.100409,-10.103058 z M 49.805252,34.533639 c -0.606767,0 -1.104898,0.498132 -1.11373,1.110197 l -0.455737,22.755949 0.45662,8.258913 c 0.0079,0.603233 0.50608,1.100481 1.112847,1.100481 0.605,0 1.103131,-0.497248 1.111963,-1.109313 l 0,0.0097 0.495482,-8.259796 -0.495482,-22.757715 c -0.0088,-0.610299 -0.506963,-1.108431 -1.111963,-1.108431 z"
     id="path4212"
     style="fill:#ffffff"
     inkscape:connector-curvature="0"
     sodipodi:nodetypes="scccsccccccscscccscccscccsccccsscccscccsscccscccsscccccscccssccccscccsscccscccsscccscccsscccsccccsscccscccsccccscccsccscsccccsssscccsccccs" />
</svg>
