<?xml version="1.0" encoding="UTF-8" standalone="no"?>
<svg
   xmlns:dc="http://purl.org/dc/elements/1.1/"
   xmlns:cc="http://creativecommons.org/ns#"
   xmlns:rdf="http://www.w3.org/1999/02/22-rdf-syntax-ns#"
   xmlns:svg="http://www.w3.org/2000/svg"
   xmlns="http://www.w3.org/2000/svg"
   xmlns:sodipodi="http://sodipodi.sourceforge.net/DTD/sodipodi-0.dtd"
   xmlns:inkscape="http://www.inkscape.org/namespaces/inkscape"
   version="1.1"
   id="svg2"
   viewBox="0 0 79.999998 79.999998"
   height="80"
   width="80"
   sodipodi:docname="itunes.svg"
   inkscape:version="0.92.3 (2405546, 2018-03-11)">
  <sodipodi:namedview
     pagecolor="#ffffff"
     bordercolor="#666666"
     borderopacity="1"
     objecttolerance="10"
     gridtolerance="10"
     guidetolerance="10"
     inkscape:pageopacity="0"
     inkscape:pageshadow="2"
     inkscape:window-width="1920"
     inkscape:window-height="1053"
     id="namedview10"
     showgrid="false"
     inkscape:zoom="2.36"
     inkscape:cx="-195.39529"
     inkscape:cy="50"
     inkscape:window-x="0"
     inkscape:window-y="27"
     inkscape:window-maximized="1"
     inkscape:current-layer="g4285" />
  <defs
     id="defs4" />
  <metadata
     id="metadata7">
    <rdf:RDF>
      <cc:Work
         rdf:about="">
        <dc:format>image/svg+xml</dc:format>
        <dc:type
           rdf:resource="http://purl.org/dc/dcmitype/StillImage" />
        <dc:title></dc:title>
      </cc:Work>
    </rdf:RDF>
  </metadata>
  <g
     transform="translate(0,-972.36223)"
     id="layer1">
    <g
       transform="translate(-225.69592,746.86426)"
       id="g4281"
       style="fill:#ff0000">
      <g
         style="fill:#ff0000"
         transform="matrix(0.16445691,0,0,0.16445691,233.59487,213.39692)"
         id="g4285">
        <g
           id="g821"
           transform="translate(-9.2754963,-7.432471e-6)">
          <circle
             r="142.97108"
             cy="316.8067"
             cx="204.46979"
             id="path819"
             style="fill:#00aad4;fill-opacity:1;stroke:#ffffff;stroke-width:17.57352829;stroke-miterlimit:4;stroke-dasharray:none;stroke-opacity:1" />
          <path
             inkscape:connector-curvature="0"
             d="m 256.6047,238.58189 -89.3806,13.75104 0.0231,100.1959 c 0,0 -15.57122,0.88898 -18.60003,1.82885 -13.22389,4.10797 -21.21094,16.23766 -17.83878,27.09226 3.37157,10.85344 16.82609,16.32322 30.04998,12.21583 10.88349,-3.38083 21.3959,-12.58229 21.95426,-21.64965 0.01,0.005 0.0144,0.006 0.0144,0.006 v -0.29132 c 0.0231,-0.52195 0.026,-1.0439 0,-1.56585 v -84.68063 l 62.53343,-8.29398 -10e-4,67.37547 -9.90086,-0.44449 c -0.93986,-0.0468 -1.89012,-0.0503 -2.84847,-0.006 l -0.29826,-10e-4 0.0202,0.0156 c -2.4323,0.13237 -4.9039,0.55952 -7.34313,1.31788 -13.22447,4.10739 -21.21036,16.2371 -17.83936,27.09053 3.37216,10.85459 16.82667,16.32322 30.05056,12.21583 11.00199,-3.41724 18.99944,-12.39386 19.40116,-21.56526 z"
             id="path4271"
             style="fill:#ffffff;stroke-width:0.57801765" />
        </g>
      </g>
    </g>
  </g>
</svg>
