<svg xmlns="http://www.w3.org/2000/svg" viewBox="0 0 79.999998 79.999998" height="80" width="80"><g transform="matrix(.16446 0 0 .16446 6.374 -12.101)" fill="red"><circle r="142.971" cy="316.807" cx="204.47" fill="#00aad4" stroke="#fff" stroke-width="17.574"/><path d="M256.605 238.582l-89.38 13.75.022 100.197s-15.571.889-18.6 1.829c-13.224 4.108-21.21 16.237-17.839 27.092 3.372 10.853 16.826 16.323 30.05 12.216 10.884-3.381 21.396-12.583 21.955-21.65l.014.006v-.291c.023-.522.026-1.044 0-1.566v-84.68l62.533-8.295v67.376l-9.901-.445c-.94-.046-1.89-.05-2.849-.006h-.298l.02.015c-2.432.132-4.904.56-7.343 1.318-13.225 4.107-21.21 16.237-17.84 27.09 3.373 10.855 16.827 16.324 30.051 12.216 11.002-3.417 19-12.394 19.401-21.565z" fill="#fff"/></g></svg>