<svg xmlns="http://www.w3.org/2000/svg" height="80" viewBox="0 0 80 80" width="80"><path d="M32.77 28.515v28.362q0 .605-.302 1.028-.302.423-.883.423-.41 0-.797-.193L19.544 52.5q-.508-.242-.858-.81-.351-.568-.351-1.124V23.002q0-.484.242-.822.242-.339.701-.339.339 0 1.064.363l12.356 6.19q.072.072.072.12zm1.548 2.442l12.912 20.94-12.912-6.432zm27.347.435v25.485q0 .605-.339.98-.338.374-.918.374-.58 0-1.137-.314l-10.663-5.32zm-.073-2.902q0 .073-6.202 10.144-6.202 10.07-7.266 11.787l-9.43-15.33L46.53 22.35q.41-.677 1.257-.677.338 0 .629.145l13.08 6.528q.097.049.097.145z" fill="#00d4aa"/></svg>