<svg xmlns="http://www.w3.org/2000/svg" width="80" height="80" viewBox="0 0 79.999999 79.999999"><path d="M11.808 42.457c-.12 0-.216.093-.232.226l-.422 3.205.422 3.149c.016.133.111.225.232.225.116 0 .211-.092.23-.224l.5-3.15-.5-3.206c-.018-.132-.114-.225-.23-.225zm2.372-1.75c-.02-.138-.118-.233-.24-.233s-.223.098-.24.232l-.567 5.182.567 5.066c.016.136.117.234.24.234.121 0 .22-.096.24-.233l.645-5.067zm8.937-4.78a.445.445 0 0 0-.436.433l-.452 9.532.452 6.16c.012.241.203.43.436.43.231 0 .423-.19.437-.431v.002l.51-6.161-.51-9.533a.448.448 0 0 0-.437-.432zm-4.625 3.313c-.18 0-.325.143-.34.333l-.508 6.316.509 6.111c.013.19.16.332.339.332.176 0 .322-.143.338-.332l.578-6.11-.578-6.318c-.016-.19-.162-.332-.338-.332zm9.325 13.242a.542.542 0 0 0 .535-.53l.443-6.057-.442-12.691a.542.542 0 0 0-.535-.53.54.54 0 0 0-.535.53l-.393 12.69.393 6.06c.009.295.244.528.534.528zm9.623.029a.74.74 0 0 0 .732-.73v.005-.004l.31-5.883-.31-14.657a.74.74 0 0 0-.732-.73.74.74 0 0 0-.732.73l-.276 14.652.276 5.892a.739.739 0 0 0 .732.725zm-4.848-.023a.638.638 0 0 0 .634-.631v.004l.376-5.965-.377-12.783a.637.637 0 0 0-.633-.63.635.635 0 0 0-.634.63l-.335 12.784.335 5.964c.008.35.286.627.634.627zm-11.797-.056a.396.396 0 0 0 .387-.38l.545-6.162-.545-5.862a.394.394 0 0 0-.387-.38.393.393 0 0 0-.387.383l-.48 5.859.48 6.16c.013.218.179.382.387.382zm-4.588-.337c.15 0 .271-.119.289-.283l.611-5.924-.61-6.147c-.019-.164-.14-.283-.29-.283-.152 0-.274.12-.29.283l-.538 6.147.538 5.923c.015.164.137.284.29.284zm18.8-19.194a.684.684 0 0 0-.684.68l-.305 12.317.305 5.926a.683.683 0 0 0 1.367-.004v.005l.342-5.927-.342-12.318a.684.684 0 0 0-.683-.68zm-9.549 19.594c.26 0 .474-.212.486-.482l.477-6.12-.477-11.712a.495.495 0 0 0-.486-.481.493.493 0 0 0-.486.481l-.422 11.713.423 6.122c.01.267.224.479.485.479zm5.321-.578v-.003l.41-6.018-.41-13.119a.59.59 0 0 0-.583-.581.588.588 0 0 0-.585.581l-.364 13.118.365 6.022a.587.587 0 0 0 .584.577.589.589 0 0 0 .583-.58zM61.75 38.334c-.972 0-1.9.196-2.744.55-.565-6.395-5.928-11.412-12.47-11.412-1.6 0-3.161.316-4.54.849-.535.207-.677.42-.682.834v22.522a.859.859 0 0 0 .766.839c.018.002 19.543.012 19.67.012a7.096 7.096 0 0 0 7.096-7.097 7.096 7.096 0 0 0-7.096-7.097zm-21.887-9.199a.79.79 0 0 0-.782.78l-.32 15.986.32 5.801a.787.787 0 0 0 .782.773c.425 0 .775-.349.781-.779v.007l.348-5.802-.348-15.987a.789.789 0 0 0-.78-.779z" fill="#ff7f2a"/></svg>