<?xml version="1.0" encoding="UTF-8" standalone="no"?>
<svg
   xmlns:dc="http://purl.org/dc/elements/1.1/"
   xmlns:cc="http://creativecommons.org/ns#"
   xmlns:rdf="http://www.w3.org/1999/02/22-rdf-syntax-ns#"
   xmlns:svg="http://www.w3.org/2000/svg"
   xmlns="http://www.w3.org/2000/svg"
   xmlns:sodipodi="http://sodipodi.sourceforge.net/DTD/sodipodi-0.dtd"
   xmlns:inkscape="http://www.inkscape.org/namespaces/inkscape"
   width="80"
   height="80"
   viewBox="0 0 79.999999 79.999999"
   id="svg4205"
   version="1.1"
   inkscape:version="0.92.3 (2405546, 2018-03-11)"
   sodipodi:docname="soundcloud.svg">
  <metadata
     id="metadata4218">
    <rdf:RDF>
      <cc:Work
         rdf:about="">
        <dc:format>image/svg+xml</dc:format>
        <dc:type
           rdf:resource="http://purl.org/dc/dcmitype/StillImage" />
        <dc:title />
      </cc:Work>
    </rdf:RDF>
  </metadata>
  <defs
     id="defs4216" />
  <sodipodi:namedview
     pagecolor="#ffffff"
     bordercolor="#666666"
     borderopacity="1"
     objecttolerance="10"
     gridtolerance="10"
     guidetolerance="10"
     inkscape:pageopacity="0"
     inkscape:pageshadow="2"
     inkscape:window-width="1920"
     inkscape:window-height="1053"
     id="namedview4214"
     showgrid="false"
     inkscape:zoom="2.2100339"
     inkscape:cx="-208.74698"
     inkscape:cy="36.078756"
     inkscape:window-x="0"
     inkscape:window-y="27"
     inkscape:window-maximized="1"
     inkscape:current-layer="svg4205" />
  <linearGradient
     id="SVGID_1_"
     gradientUnits="userSpaceOnUse"
     x1="46.492699"
     y1="0"
     x2="46.492699"
     y2="53.006302">
    <stop
       offset="0"
       style="stop-color: #F79810"
       id="stop4208" />
    <stop
       offset="1"
       style="stop-color: #F8310E"
       id="stop4210" />
  </linearGradient>
  <path
     d="m 11.80761,42.457215 c -0.12037,0 -0.215913,0.09307 -0.231424,0.225841 l -0.421898,3.204562 0.421898,3.149343 c 0.01551,0.132774 0.111064,0.225219 0.231424,0.225219 0.116647,0 0.211569,-0.09182 0.230181,-0.223978 v 0 -6.2e-4 6.2e-4 l 0.500074,-3.150584 -0.500074,-3.205183 c -0.018,-0.132153 -0.114157,-0.22522 -0.230181,-0.22522 z m 2.372554,-1.750875 c -0.01986,-0.137737 -0.118509,-0.232664 -0.24011,-0.232664 -0.122226,0 -0.223357,0.09802 -0.24011,0.232664 0,0.0013 -0.567079,5.181278 -0.567079,5.181278 l 0.567079,5.066496 c 0.01613,0.135876 0.117264,0.233905 0.24011,0.233905 0.120986,0 0.219636,-0.09555 0.23949,-0.232664 l 0.645255,-5.067737 z m 8.936789,-4.779234 c -0.232665,0 -0.425001,0.190476 -0.436169,0.432445 l -0.451678,9.532409 0.451678,6.16033 c 0.01184,0.240729 0.203504,0.430584 0.436169,0.430584 0.231423,0 0.423138,-0.190474 0.436787,-0.431825 v 0.0018 L 24.064361,45.8919 23.55374,36.359492 C 23.5401,36.117521 23.348376,35.927047 23.116953,35.927047 Z m -4.625365,3.313139 c -0.178686,0 -0.32449,0.142701 -0.33876,0.333175 l -0.508759,6.316059 0.508759,6.110693 c 0.01366,0.189234 0.160074,0.331935 0.33876,0.331935 0.176825,0 0.322628,-0.142701 0.338139,-0.331935 l 0.578247,-6.110693 -0.578247,-6.3173 c -0.0155,-0.189233 -0.161314,-0.331934 -0.338139,-0.331934 z m 9.325803,13.242007 c 0.288503,0 0.523029,-0.232663 0.534817,-0.530473 l 0.442993,-6.056717 -0.442373,-12.691058 c -0.01184,-0.297809 -0.246313,-0.530474 -0.534817,-0.530474 -0.290985,0 -0.526132,0.233285 -0.535437,0.531095 0,6.21e-4 -0.392738,12.689817 -0.392738,12.689817 l 0.392738,6.059198 c 0.0093,0.295327 0.244452,0.528612 0.534817,0.528612 z m 9.622992,0.02855 c 0.39708,0 0.724672,-0.32697 0.732117,-0.729014 v 0.0044 -0.0044 L 38.481477,45.898792 38.1725,31.241565 c -0.0068,-0.401423 -0.335037,-0.729015 -0.732117,-0.729015 -0.397701,0 -0.725912,0.326972 -0.732116,0.729635 l -0.276095,14.651641 c 0,0.0093 0.276095,5.891678 0.276095,5.891678 0.0062,0.398321 0.335036,0.725293 0.732116,0.725294 z m -4.848103,-0.02295 c 0.345586,0 0.624162,-0.277336 0.633469,-0.630986 v 0.0044 l 0.375984,-5.964905 -0.376606,-12.782883 c -0.0093,-0.35365 -0.287883,-0.630364 -0.633467,-0.630364 -0.348065,0 -0.626641,0.276714 -0.634087,0.630364 l -0.334416,12.783503 0.335036,5.96365 c 0.0075,0.349927 0.286022,0.627264 0.634087,0.627264 z m -11.797007,-0.05583 c 0.205365,0 0.371643,-0.164417 0.387153,-0.38095 l 0.544745,-6.161569 -0.544745,-5.861278 c -0.01489,-0.216533 -0.181167,-0.379707 -0.387153,-0.379707 -0.208466,0 -0.374745,0.164416 -0.387772,0.382189 l -0.4796,5.858796 0.4796,6.160948 c 0.01364,0.217154 0.179306,0.381571 0.387772,0.381571 z m -4.588758,-0.33752 c 0.150146,0 0.271751,-0.118508 0.289124,-0.282298 l 0.611752,-5.923941 -0.611131,-6.1473 c -0.01799,-0.164417 -0.139599,-0.282921 -0.289745,-0.282921 -0.152007,0 -0.273614,0.119125 -0.289125,0.282921 0,6.2e-4 -0.53854,6.1473 -0.53854,6.1473 l 0.53854,5.922701 c 0.01489,0.164416 0.136497,0.283538 0.289125,0.283538 z M 35.007025,32.90061 c -0.375365,0 -0.676277,0.298431 -0.683721,0.680621 l -0.305256,12.316314 0.305256,5.926423 c 0.0075,0.377226 0.307736,0.675657 0.683721,0.675657 0.374745,0 0.673797,-0.297811 0.682483,-0.68 v 0.005 L 36.03199,45.89819 35.689508,33.580015 c -0.0087,-0.380949 -0.307738,-0.67938 -0.682483,-0.67938 z m -9.54854,19.594052 c 0.259343,0 0.473395,-0.211569 0.485803,-0.481461 l 0.476497,-6.119379 -0.476497,-11.712627 c -0.01303,-0.270511 -0.22646,-0.481461 -0.485803,-0.481461 -0.261825,0 -0.475255,0.21157 -0.486423,0.481461 0,6.21e-4 -0.421898,11.712627 -0.421898,11.712627 l 0.422518,6.121861 c 0.01051,0.26741 0.223978,0.478979 0.485803,0.478979 z m 5.320877,-0.577629 v -0.003 l 0.409488,-6.018248 -0.409488,-13.11854 c -0.0099,-0.325729 -0.266788,-0.58135 -0.583833,-0.58135 -0.318904,0 -0.575766,0.255 -0.584453,0.58135 l -0.363576,13.11792 0.364196,6.021352 c 0.0087,0.322627 0.265549,0.577627 0.583833,0.577627 0.317665,0 0.573285,-0.255 0.583833,-0.57949 z M 61.750383,38.333785 c -0.972227,0 -1.899781,0.196679 -2.744816,0.55095 -0.564599,-6.395475 -5.927666,-11.412336 -12.469563,-11.412336 -1.60073,0 -3.161131,0.315182 -4.539124,0.848138 -0.535439,0.207226 -0.67814,0.420657 -0.683103,0.83449 v 22.521897 c 0.0056,0.434307 0.342483,0.796023 0.766241,0.838833 0.01799,0.0019 19.543176,0.01184 19.669745,0.01184 3.918687,0 7.095949,-3.177262 7.095949,-7.096569 0,-3.919306 -3.176642,-7.097189 -7.095329,-7.097189 z m -21.88719,-9.198613 c -0.42624,0 -0.776168,0.349927 -0.782371,0.77989 l -0.320146,15.985585 0.320766,5.801715 c 0.0056,0.423759 0.355511,0.773066 0.781751,0.773066 0.425001,0 0.774928,-0.349307 0.781132,-0.77927 v 0.0068 L 40.99239,45.90059 40.644325,29.913766 c -0.0062,-0.428722 -0.356131,-0.778649 -0.781132,-0.778649 z"
     id="path4212"
     style="fill:#ff7f2a;stroke-width:0.70247936"
     inkscape:connector-curvature="0"
     sodipodi:nodetypes="scccsccccccscscccscccscccsccccsscccscccsscccscccsscccccscccssccccscccsscccscccsscccscccsscccsccccsscccscccsccccscccsccscsccccsssscccsccccs" />
</svg>
