<svg xmlns="http://www.w3.org/2000/svg" width="80" height="80" viewBox="0 0 80.000016 79.999026"><path d="M32.12 57.323c16.03 0 24.796-13.328 24.796-24.886 0-.379-.008-.756-.025-1.13a17.759 17.759 0 0 0 4.347-4.53 17.328 17.328 0 0 1-5.005 1.377 8.772 8.772 0 0 0 3.833-4.838 17.439 17.439 0 0 1-5.534 2.123 8.69 8.69 0 0 0-6.361-2.763c-4.813 0-8.715 3.917-8.715 8.745 0 .687.076 1.354.226 1.995-7.243-.366-13.666-3.847-17.964-9.139a8.748 8.748 0 0 0-1.18 4.396 8.748 8.748 0 0 0 3.878 7.281 8.626 8.626 0 0 1-3.947-1.094l-.001.112a8.74 8.74 0 0 0 6.991 8.574 8.696 8.696 0 0 1-3.935.15c1.109 3.475 4.326 6.004 8.14 6.075a17.442 17.442 0 0 1-10.823 3.744c-.703 0-1.397-.04-2.079-.121a24.603 24.603 0 0 0 13.359 3.929" fill="#2ad4ff"/></svg>