<svg xmlns="http://www.w3.org/2000/svg" id="Layer_1" viewBox="0 0 80 80" width="80" height="80"><style id="style2">.st0,.st1{fill-rule:evenodd;clip-rule:evenodd}.st1{fill:#fff}</style><g id="g8" transform="matrix(.35259 0 0 .35259 -9.98 -9.98)"><path class="st1" d="M213.3 105.499c1.112-3.491 0-6.03-4.918-6.03h-16.345c-4.125 0-6.03 2.221-7.14 4.602 0 0-8.41 20.311-20.153 33.482-3.808 3.808-5.554 5.078-7.617 5.078-1.11 0-2.539-1.27-2.539-4.761v-32.53c0-4.126-1.27-6.03-4.76-6.03H124.12c-2.539 0-4.126 1.904-4.126 3.808 0 3.968 5.872 4.92 6.506 16.027v24.12c0 5.237-.952 6.189-3.015 6.189-5.554 0-19.042-20.47-27.134-43.797-1.587-4.601-3.174-6.347-7.3-6.347H72.55c-4.76 0-5.554 2.222-5.554 4.602 0 4.284 5.554 25.865 25.866 54.428 13.488 19.518 32.688 29.991 49.985 29.991 10.473 0 11.742-2.38 11.742-6.347v-14.758c0-4.76.952-5.554 4.285-5.554 2.38 0 6.664 1.27 16.344 10.632 11.108 11.108 13.012 16.186 19.2 16.186h16.345c4.76 0 6.982-2.38 5.713-6.982-1.429-4.602-6.824-11.267-13.806-19.2-3.808-4.444-9.52-9.363-11.266-11.743-2.38-3.174-1.746-4.443 0-7.3-.159 0 19.835-28.245 21.898-37.766" id="path6" clip-rule="evenodd" fill="#4680c2" fill-rule="evenodd" stroke-width="1.587"/></g></svg>