<?xml version="1.0" encoding="UTF-8" standalone="no"?>
<!-- Generator: Adobe Illustrator 22.1.0, SVG Export Plug-In . SVG Version: 6.00 Build 0)  -->

<svg
   xmlns:dc="http://purl.org/dc/elements/1.1/"
   xmlns:cc="http://creativecommons.org/ns#"
   xmlns:rdf="http://www.w3.org/1999/02/22-rdf-syntax-ns#"
   xmlns:svg="http://www.w3.org/2000/svg"
   xmlns="http://www.w3.org/2000/svg"
   xmlns:sodipodi="http://sodipodi.sourceforge.net/DTD/sodipodi-0.dtd"
   xmlns:inkscape="http://www.inkscape.org/namespaces/inkscape"
   version="1.1"
   id="Layer_1"
   x="0px"
   y="0px"
   viewBox="0 0 80 80"
   xml:space="preserve"
   sodipodi:docname="vk.svg"
   width="80"
   height="80"
   inkscape:version="0.92.2 2405546, 2018-03-11"><metadata
   id="metadata15"><rdf:RDF><cc:Work
       rdf:about=""><dc:format>image/svg+xml</dc:format><dc:type
         rdf:resource="http://purl.org/dc/dcmitype/StillImage" /><dc:title /></cc:Work></rdf:RDF></metadata><defs
   id="defs13" /><sodipodi:namedview
   pagecolor="#ffffff"
   bordercolor="#666666"
   borderopacity="1"
   objecttolerance="10"
   gridtolerance="10"
   guidetolerance="10"
   inkscape:pageopacity="0"
   inkscape:pageshadow="2"
   inkscape:window-width="1920"
   inkscape:window-height="1015"
   id="namedview11"
   showgrid="false"
   inkscape:zoom="2.3545284"
   inkscape:cx="14.432383"
   inkscape:cy="122.06833"
   inkscape:window-x="0"
   inkscape:window-y="0"
   inkscape:window-maximized="1"
   inkscape:current-layer="g8" />
<style
   type="text/css"
   id="style2">
	.st0{fill-rule:evenodd;clip-rule:evenodd;}
	.st1{fill-rule:evenodd;clip-rule:evenodd;fill:#FFFFFF;}
</style>
<g
   id="g8"
   transform="matrix(0.35258916,0,0,0.35258916,-9.9795132,-9.9795132)">
	
	<path
   class="st1"
   d="m 213.3009,105.49872 c 1.11078,-3.49102 0,-6.029951 -4.91917,-6.029951 h -16.34435 c -4.12575,0 -6.02995,2.221561 -7.14073,4.601801 0,0 -8.4102,20.31142 -20.15274,33.48211 -3.80839,3.80839 -5.5539,5.07786 -7.61678,5.07786 -1.11078,0 -2.53893,-1.26947 -2.53893,-4.76049 v -32.53001 c 0,-4.12576 -1.26946,-6.029954 -4.76049,-6.029954 h -25.70664 c -2.53892,0 -4.12575,1.904194 -4.12575,3.808394 0,3.96707 5.87127,4.91917 6.506,16.02698 v 24.11981 c 0,5.23654 -0.9521,6.18863 -3.01498,6.18863 -5.5539,0 -19.04195,-20.4701 -27.134786,-43.7965 -1.58683,-4.6018 -3.17366,-6.347314 -7.299417,-6.347314 H 72.549109 c -4.76049,0 -5.553904,2.221564 -5.553904,4.601804 0,4.28444 5.553904,25.86533 25.865323,54.42826 13.488052,19.51801 32.688692,29.99108 49.985132,29.99108 10.47308,0 11.74254,-2.38024 11.74254,-6.34732 V 167.2264 c 0,-4.76049 0.9521,-5.55391 4.28444,-5.55391 2.38025,0 6.66469,1.26947 16.34435,10.63176 11.10781,11.10781 13.012,16.18566 19.20064,16.18566 h 16.34434 c 4.76049,0 6.98205,-2.38024 5.71259,-6.98205 -1.42815,-4.6018 -6.82337,-11.26649 -13.80542,-19.20064 -3.80839,-4.44312 -9.52098,-9.36229 -11.26649,-11.74254 -2.38024,-3.17365 -1.74551,-4.44312 0,-7.29941 -0.15868,0 19.83537,-28.24557 21.89825,-37.76655"
   id="path6"
   inkscape:connector-curvature="0"
   style="clip-rule:evenodd;fill:#4680c2;fill-opacity:1;fill-rule:evenodd;stroke-width:1.58682966" />
</g>
</svg>