<svg xmlns="http://www.w3.org/2000/svg" viewBox="0 0 47.5 47.5"><defs><clipPath id="a"><path d="M0 38h38V0H0v38z"/></clipPath></defs><g clip-path="url(#a)" transform="matrix(1.25 0 0 -1.25 0 47.5)"><path d="M37 19c0-9.941-8.059-18-18-18C9.06 1 1 9.059 1 19c0 9.94 8.06 18 18 18 9.941 0 18-8.06 18-18" fill="#ffcc4d"/><path d="M35 15a5 5 0 0 0-5-5 5 5 0 0 0-5 5 5 5 0 0 0 5 5 5 5 0 0 0 5-5M13 15a5 5 0 0 0-5-5 5 5 0 0 0-5 5 5 5 0 0 0 5 5 5 5 0 0 0 5-5" fill="#ff7892"/><path d="M22 26s5 1 8-2M16 26s-5 1-8-2M21 20s4 1 6-1M17 20s-4 1-6-1" fill="none" stroke="#664500" stroke-width="2" stroke-linecap="round" stroke-linejoin="round"/><path d="M14 12s1-4 5-4 5 4 5 4-1-1-5-1-5 1-5 1" fill="#664500"/><path d="M14 12s1-4 5-4 5 4 5 4-1-1-5-1-5 1-5 1z" fill="none" stroke="#664500" stroke-linecap="round" stroke-linejoin="round"/></g></svg>