<svg xmlns="http://www.w3.org/2000/svg" width="180" height="240" viewBox="0 0 180 240.00002"><path d="M0 60h15v120H0zM15 30h15v30H15zM30 15h30v15H30zM60 0h60v15H60z"/><path d="M30 60v150h90v-15H45V60zM45 45h15v15H45zM60 30v15h60v15h15V30z" fill="#f8d81e"/><path fill="#f8f800" d="M60 45h15v15H60zM105 45h15v15h-15zM75 60h15v90H75z"/><path d="M90 60v90H75v30h30V60z" fill="#f8d81e"/><path d="M105 60h15v120h-15zM75 180h30v15H75z"/><path fill="#f8d81e" d="M120 180h15v15h-15z"/><path d="M135 180v15h-15v15h30v-30z" fill="#d89e36"/><path fill="#f8f800" d="M120 60h15v120h-15z"/><path fill="#f8d81e" d="M135 60h15v120h-15z"/><path fill="#d89e36" d="M150 60h15v120h-15zM135 30h15v30h-15z"/><path fill="#f8f800" d="M45 60h15v135H45zM60 180h15v15H60z"/><path fill="#d89e36" d="M60 210h60v15H60z"/><path d="M15 210h15v-30H15zM30 225h30v-15H30zM60 240h60v-15H60zM180 60h-15v120h15zM165 30h-15v30h15zM150 15h-30v15h30zM165 210h-15v-30h15zM150 225h-30v-15h30z"/><path fill="#f8f800" d="M105 180h15v15h-15z"/><path fill="#fff" d="M15 60h15v120H15zM30 30v30h15V45h15V30H30zM60 15h60v15H60zM60 60h15v120H60zM75 45h30v15H75z"/></svg>