<?xml version="1.0" encoding="UTF-8" standalone="no"?>
<svg xmlns:svg="http://www.w3.org/2000/svg" xmlns="http://www.w3.org/2000/svg" version="1.1" viewBox="0 0 430 430">
	<path
		d="m 388.25875,197.2902 c -9.30122,-0.42764 -40.08998,34.79935 -25.32974,48.44357 14.76024,13.64422 52.14375,-3.32578 54.03134,-12.22489 1.88759,-8.89911 -2.74193,-15.08615 -9.51864,-22.57909 -8.54376,-9.44677 -9.88174,-13.21195 -19.1296,-13.63959 z"
		style="fill:#ff0000;stroke:#000000;stroke-width:7"
	/>
	<circle
		r="2.5"
		cy="229.56636"
		cx="403.52698"
		style="fill:#000000"
	/>
	<circle
		r="2.5"
		cy="221.11125"
		cx="397.11493"
		style="fill:#000000"
	/>
	<circle
		r="2.5"
		cy="230.11812"
		cx="393.71466"
		style="fill:#000000"
	/>
	<path
		style="stroke:#000000;stroke-width:7;stroke-linecap: round;"
		d="m 406.39598,209.52544 -1.71056,-16.46422"
	/>
	<path
		style="stroke:#000000;stroke-width:7;stroke-linecap: round;"
		d="m 407.00254,210.02143 8.33903,-7.69756" 
	/>
  <path
	 style="stroke:#000000;stroke-width:7;stroke-linecap: round;"
	 d="m 405.93343,209.37997 17.1057,4.49024" />
  <path
	 style="fill:#000000"
	 d="m 116.12977,330.09692 c -0.99788,-0.45692 -2.42667,-0.84305 -3.17508,-0.85805 -0.74841,-0.015 -1.36075,-0.29943 -1.36075,-0.63205 0,-0.33263 -0.83434,-0.60478 -1.85409,-0.60478 -1.01975,0 -2.44854,-0.33251 -3.17508,-0.73891 -0.93869,-0.52506 -5.64666,-0.74384 -16.267374,-0.75597 -13.23289,-0.0151 -15.064,-0.13466 -15.97241,-1.04283 -1.23271,-1.23238 -2.62467,-5.02682 -2.63726,-7.18913 -0.005,-0.85929 -0.21323,-1.76476 -0.4627,-2.01215 -0.24947,-0.24739 -0.77949,-2.53799 -1.17781,-5.09021 -1.12944,-7.23665 -1.43623,-8.78452 -1.99858,-10.08341 -0.28801,-0.66525 -0.80353,-2.97853 -1.14559,-5.14061 -0.97925,-6.18966 -1.39082,-8.1193 -1.8704,-8.76928 -0.24543,-0.33262 -0.63018,-1.82945 -0.855,-3.32627 -0.39595,-2.63617 -1.22261,-5.67086 -2.22406,-8.1645 -0.26716,-0.66526 -0.6691,-2.16208 -0.8932,-3.32628 -0.22409,-1.1642 -0.59201,-2.38887 -0.8176,-2.7215 -0.22559,-0.33263 -0.90241,-2.1016 -1.50405,-3.93106 -0.60165,-1.82945 -1.5976,-4.45288 -2.21324,-5.82984 -0.61563,-1.37697 -1.29764,-3.21398 -1.51556,-4.08225 -0.21792,-0.86827 -0.63887,-1.57868 -0.93544,-1.57868 -0.29657,0 -0.53921,-0.40739 -0.53921,-0.90532 0,-2.20886 -7.14334,-14.23676 -11.0372,-18.58436 -0.91472,-1.02132 -1.66466,-2.02069 -1.66652,-2.22082 -0.002,-0.20014 -1.2141,-1.64243 -2.69387,-3.20507 -3.21637,-3.39652 -9.398301,-11.65053 -9.398301,-12.54846 0,-0.35033 -0.240409,-0.63697 -0.534242,-0.63697 -0.293833,0 -0.694157,-0.47626 -0.889608,-1.05836 -0.345381,-1.02862 -1.593768,-3.16881 -2.204816,-3.77986 -0.65634,-0.65634 -7.257333,-14.29475 -7.257333,-14.99448 0,-0.41039 -0.27215,-1.28676 -0.604778,-1.9475 -1.480695,-2.9413 -1.683685,-3.4749 -2.075043,-5.45464 -0.227981,-1.15329 -0.641165,-2.64118 -0.918186,-3.30643 -1.033267,-2.48135 -2.44977,-7.74627 -2.44977,-9.10543 0,-0.77374 -0.242081,-1.55641 -0.537957,-1.73927 -0.295877,-0.18287 -0.672337,-1.21949 -0.836579,-2.30361 -0.164242,-1.08413 -0.7239044,-3.74011 -1.2436934,-5.90219 -3.563649,-14.82311 -3.57811,-14.94742 -2.46248,-21.16722 0.566794,-3.15997 1.261449,-6.00393 1.543678,-6.31993 0.282228,-0.316 0.513142,-1.0913 0.513142,-1.72292 0,-0.63162 0.408225,-2.07401 0.907167,-3.20532 0.4989414,-1.1313 1.3413314,-3.07748 1.8719764,-4.32484 0.839989,-1.97451 4.495693,-9.42769 6.209354,-12.65952 1.43419,-2.70477 3.711835,-7.9313 3.711835,-8.51758 0,-0.35491 0.20654,-0.73601 0.458978,-0.84689 0.252438,-0.11087 1.167349,-1.56234 2.033135,-3.22548 2.784197,-5.348322 3.849606,-7.249642 4.235845,-7.559262 0.207786,-0.16657 0.896192,-1.25537 1.529794,-2.41957 1.697463,-3.11897 5.754022,-9.15219 7.315272,-10.87982 0.74842,-0.82817 1.36075,-1.6715 1.36075,-1.87406 0,-1.26506 15.41686,-16.867179 20.26537,-20.508899 1.99285,-1.49683 3.71407,-2.92562 3.82495,-3.17509 0.11087,-0.24947 0.46922,-0.45358 0.79632,-0.45358 0.3271,0 1.46106,-0.64631 2.51991,-1.43625 4.04773,-3.01976 12.19104,-7.15607 20.37089,-10.34718 1.49683,-0.58394 3.2658,-1.27804 3.93106,-1.54246 1.28932,-0.51246 5.6649,-1.68391 8.1645,-2.18584 0.83157,-0.16698 2.056244,-0.53047 2.721504,-0.80776 2.95841,-1.23311 20.71028,-3.13961 29.33171,-3.15015 8.28176,-0.0101 32.09267,2.36408 33.01395,3.29184 0.24773,0.24947 1.01739,0.45287 1.71037,0.452 1.47909,-0.002 9.1852,1.70484 10.9364,2.42213 0.66525,0.27249 2.50124,0.99597 4.07998,1.60774 1.57873,0.61178 2.87145,1.31643 2.87269,1.5659 10e-4,0.24947 0.35142,0.45359 0.77816,0.45359 1.05762,0 3.6495,2.02893 8.11208,6.35016 3.5102,3.39903 9.86014,12.808639 9.86014,14.611199 0,0.44585 0.21839,0.81063 0.48531,0.81063 0.26692,0 0.98531,1.42879 1.59642,3.1751 0.61111,1.74629 1.34525,3.43362 1.63142,3.74962 0.28616,0.316 0.52197,0.99637 0.52402,1.51194 0.002,0.51558 0.41027,1.71693 0.90717,2.66968 0.49689,0.95275 0.90344,2.24546 0.90344,2.87269 0,0.62724 0.21027,1.14043 0.46727,1.14043 0.43321,0 1.53897,3.48595 2.35002,7.40852 0.18914,0.91473 0.58514,1.66314 0.88002,1.66314 0.29487,0 0.53781,0.61234 0.53986,1.36075 0.002,0.74841 0.41027,2.14027 0.90716,3.09302 0.49689,0.95275 0.90344,2.109392 0.90344,2.570312 0,0.46092 0.27215,0.83803 0.60478,0.83803 0.33263,0 0.60478,0.27028 0.60478,0.60063 0,1.03275 2.07608,5.44715 2.56178,5.44715 0.25416,0 0.46211,0.29243 0.46211,0.64986 0,0.74216 5.84846,8.65205 8.04101,10.87524 0.80148,0.81269 1.76949,2.07207 2.15111,2.79861 0.82214,1.56517 0.91911,4.81859 0.15766,5.2892 -0.29492,0.18226 -0.71548,1.28693 -0.93457,2.45479 -0.2191,1.16788 -0.59876,2.12341 -0.8437,2.12341 -0.24493,0 -0.78802,1.16057 -1.20685,2.57906 -0.64567,2.18675 -0.61889,2.86494 0.176,4.45834 0.93547,1.8752 4.88145,5.82384 8.68092,8.6868 1.10359,0.83157 3.26327,2.46447 4.79928,3.62867 1.53601,1.16419 4.37451,3.66482 6.30778,5.55695 l 3.51502,3.44024 -0.0192,3.8171 c -0.0224,4.43933 -0.52884,5.25458 -4.21421,6.78343 -5.57291,2.31189 -6.38121,2.72828 -7.71092,3.97226 -0.74841,0.70016 -1.36075,1.44084 -1.36075,1.64596 0,0.37703 2.95243,4.46441 3.62821,5.02294 0.63174,0.52213 2.21855,4.41698 3.01832,7.40853 0.4224,1.57998 1.00478,2.87269 1.29418,2.87269 0.67708,0 0.69036,2.25359 0.0149,2.51991 -0.28124,0.11088 -1.47528,1.56234 -2.65344,3.22548 -2.00958,2.83681 -2.16009,3.37935 -2.43277,8.76928 -0.20892,4.12975 -0.63601,6.42565 -1.51879,8.1645 -1.9282,3.79806 -1.98106,7.25966 -0.14101,9.23473 0.66526,0.71407 1.20956,1.56239 1.20956,1.88517 0,0.32278 0.34018,0.95702 0.75597,1.40942 0.98491,1.07166 2.07111,2.97604 4.23689,7.42834 0.97082,1.99577 2.01356,4.10124 2.31719,4.67882 0.30363,0.57759 0.55206,1.57547 0.55206,2.21752 0,0.64205 0.32565,1.27591 0.72367,1.40859 1.1177,0.37257 1.03721,13.08827 -0.0971,15.33897 -1.9384,3.84618 -3.02314,4.9442 -5.30582,5.37078 -1.25163,0.23391 -2.54785,0.63889 -2.88047,0.89996 -0.71515,0.5613 -2.67352,0.94219 -11.18839,2.17603 -14.73453,2.13511 -16.89429,2.68074 -22.72809,5.74195 -6.94869,3.64622 -6.65174,3.45995 -11.74424,7.36722 -4.00887,3.07584 -5.84773,5.01734 -9.4514,9.97899 -3.08772,4.25126 -8.08718,13.77957 -8.08718,15.41308 0,0.59084 -0.27215,1.07425 -0.60478,1.07425 -0.33263,0 -0.60478,0.55014 -0.60478,1.22252 0,0.71218 -0.56804,1.43729 -1.36075,1.73699 -3.025,1.14368 -5.74892,1.87871 -6.96218,1.87871 -0.70517,0 -1.42823,0.2364 -1.6068,0.52534 -0.17857,0.28894 -1.47385,0.7091 -2.87838,0.9337 -1.40454,0.22459 -2.83936,0.6118 -3.18849,0.86046 -0.34913,0.24866 -1.72338,0.81234 -3.05389,1.25263 -2.34075,0.7746 -4.0798,1.47435 -8.4071,3.38282 -1.13131,0.49894 -2.35598,0.90716 -2.7215,0.90716 -0.36551,0 -0.66457,0.27215 -0.66457,0.60478 0,0.33263 -0.2883,0.60478 -0.64067,0.60478 -0.66064,0 -10.91578,4.85823 -11.45488,5.42659 -0.86808,0.91518 -10.75931,5.45238 -11.79461,5.41029 -0.66446,-0.027 -2.02456,-0.42297 -3.02245,-0.87989 z m 5.35344,-10.87081 c 0.51641,-7.26754 -0.041,-12.1287 -1.61751,-14.10642 -1.38452,-1.73688 -10.0693,-4.93743 -13.39781,-4.93743 -1.13295,0 -2.2281,-0.27215 -2.43368,-0.60477 -0.57724,-0.934 -3.69163,-0.7148 -4.550684,0.32029 -0.60558,0.72969 -0.61432,1.26182 -0.0414,2.51929 0.3995,0.87681 1.023154,5.56334 1.385904,10.41451 0.36274,4.85116 0.89468,9.12315 1.18208,9.49332 0.28741,0.37017 2.61331,0.86249 5.16867,1.09404 2.55537,0.23157 4.93433,0.60903 5.2866,0.83881 1.13198,0.73837 6.65792,2.42733 7.59542,2.32147 0.71764,-0.081 1.01481,-1.61731 1.42239,-7.35311 h -10e-6 z m 18.70556,-2.15773 c 2.06843,-0.69147 4.01932,-1.50792 4.33532,-1.81434 0.31599,-0.30641 0.99637,-0.55825 1.51194,-0.55964 0.51557,-10e-4 2.20602,-0.64622 3.75654,-1.43294 1.55052,-0.78673 3.48099,-1.59652 4.28992,-1.79955 2.43349,-0.61077 4.68411,-3.31344 4.68411,-5.62493 0,-1.12336 -0.24694,-2.51503 -0.54876,-3.09262 -0.30182,-0.57758 -1.73061,-3.4995 -3.17508,-6.49315 -1.44448,-2.99365 -2.7624,-5.57908 -2.92871,-5.74539 -0.16632,-0.16631 -1.52707,-2.75174 -3.02389,-5.74539 -1.49683,-2.99365 -2.88893,-5.57907 -3.09357,-5.74539 -0.20464,-0.16631 -0.58151,-0.98276 -0.83749,-1.81433 -0.25598,-0.83157 -0.63284,-1.64802 -0.83748,-1.81433 -0.20464,-0.16632 -1.08134,-1.66314 -1.94823,-3.32628 -0.86688,-1.66314 -2.30935,-4.35672 -3.20546,-5.98573 -2.10409,-3.82491 -1.87784,-5.21294 1.07594,-6.60073 2.30083,-1.08103 2.33667,-1.14857 2.03397,-3.834 -0.3766,-3.34127 -3.27212,-6.6583 -6.30962,-7.22814 -1.10598,-0.20748 -2.16,-0.61853 -2.34226,-0.91345 -0.18228,-0.29492 -0.89116,-0.53622 -1.57529,-0.53622 -1.55335,0 -7.38316,-1.95732 -7.6556,-2.57031 -0.11088,-0.24947 -0.49528,-0.45358 -0.85422,-0.45358 -0.6662,0 -6.27945,-3.40517 -7.45621,-4.52316 -1.16164,-1.10364 -7.42589,-6.46622 -8.54351,-7.31377 -1.5549,-1.17917 -4.04845,-1.05106 -5.70783,0.29326 -1.21263,0.98239 -1.40786,1.63553 -1.29576,4.33518 0.0726,1.74819 0.41278,3.45932 0.75596,3.80252 0.3432,0.3432 0.62399,0.98324 0.62399,1.42232 0,0.82524 4.761,11.12351 5.3906,11.66009 0.19513,0.16631 0.95521,1.52706 1.68904,3.02389 1.93804,3.95309 4.04023,7.52926 4.56234,7.76131 0.24947,0.11088 0.45526,0.65518 0.45731,1.20956 0.002,0.55438 0.41027,1.78748 0.90716,2.74023 0.49689,0.95275 0.90344,2.10939 0.90344,2.57031 0,0.46092 0.27215,0.83803 0.60478,0.83803 0.33263,0 0.60645,0.47626 0.6085,1.05836 0.002,0.5821 0.41028,1.83789 0.90717,2.79063 0.49689,0.95275 0.90344,2.10939 0.90344,2.57031 0,0.46092 0.27215,0.83803 0.60478,0.83803 0.33263,0 0.60478,0.42566 0.60478,0.94592 0,0.52026 0.68037,2.43338 1.51194,4.25137 0.83157,1.818 1.51195,3.46037 1.51195,3.64971 0,0.18934 0.43597,1.33791 0.96883,2.55238 0.98666,2.24878 1.21429,2.7885 2.97177,7.04634 0.54919,1.33052 1.38405,3.31284 1.85523,4.40516 0.4712,1.09233 0.85672,2.38504 0.85672,2.8727 0,0.48765 0.20411,0.88668 0.45358,0.88672 0.24948,4e-5 0.9876,1.76901 1.64028,3.93105 0.65268,2.16205 1.40109,3.93098 1.66314,3.93098 0.26205,0 0.47644,0.39052 0.47644,0.8678 0,1.47107 1.1447,3.97043 1.81844,3.97043 0.35136,0 2.33119,-0.56575 4.39962,-1.25722 z m 99.93018,-56.81721 c 0.21093,-0.3413 1.07472,-0.54541 1.91951,-0.45358 0.90089,0.0979 1.71847,-0.20815 1.97729,-0.74021 0.24271,-0.49894 0.75574,-1.51581 1.14006,-2.25971 0.90241,-1.74668 0.90306,-10.02484 0.001,-12.81679 -1.50988,-4.67333 -3.73615,-9.71939 -4.2881,-9.71939 -0.25143,0 -0.4597,-0.34018 -0.46282,-0.75597 -0.005,-0.70512 -2.56768,-5.26824 -4.97708,-8.86321 -0.57844,-0.86306 -1.21041,-1.97743 -1.40439,-2.47637 -0.88586,-2.27861 -1.47093,-2.75256 -3.95815,-3.20647 -1.46177,-0.26673 -5.51518,-0.56068 -9.00777,-0.65322 -3.81375,-0.10106 -6.95408,-0.49007 -7.86211,-0.97395 -1.46755,-0.78202 -5.48349,-3.76335 -7.13441,-5.29639 -0.44775,-0.41578 -1.73646,-0.75597 -2.86378,-0.75597 -2.06023,0 -2.32577,0.18266 -4.50945,3.10198 -1.30041,1.73848 -3.57568,2.45875 -5.08999,1.6113 -0.78292,-0.43814 -0.96482,-1.68011 -0.96482,-6.5877 0,-6.21214 0.78606,-9.09236 2.67977,-9.81904 1.05449,-0.40465 1.87362,0.53835 0.95876,1.10375 -1.02066,0.6308 -0.76176,7.9004 0.31315,8.79249 1.41009,1.17027 3.40639,-0.18568 5.47998,-3.7222 1.61813,-2.7597 1.89988,-2.96761 3.57106,-2.63514 4.42839,0.881 6.23006,0.97608 6.61747,0.34922 0.22487,-0.36385 1.07318,-0.66155 1.88512,-0.66155 0.81193,0 1.47625,-0.27215 1.47625,-0.60478 0,-0.33262 0.35506,-0.60477 0.78903,-0.60477 0.8291,0 7.08034,-5.8004 9.24689,-8.58002 1.21552,-1.55947 1.33757,-1.58789 3.02389,-0.70408 2.50187,1.31124 7.68479,1.74378 9.90002,0.82621 1.60225,-0.66368 1.83605,-1.0617 1.83605,-3.12569 0,-2.30023 -1.11098,-5.74358 -2.356,-7.30214 -0.33811,-0.42326 -1.37512,-1.66535 -2.30446,-2.7602 l -1.6897,-1.99064 -3.17212,1.53705 c -3.70644,1.79597 -5.00286,1.88678 -8.00802,0.5609 -2.12888,-0.93925 -6.05603,-5.70682 -6.05603,-7.35202 0,-0.40891 -0.27215,-0.74348 -0.60478,-0.74348 -0.33262,0 -0.60477,-0.27215 -0.60477,-0.60478 0,-1.23988 2.29357,-0.58319 2.64031,0.75597 0.19377,0.74841 1.03972,2.15149 1.87989,3.11796 0.84017,0.96646 1.52757,1.97653 1.52757,2.24461 0,0.26806 1.02057,0.75943 2.26792,1.09192 2.69715,0.71895 6.01182,0.0851 7.98926,-1.52768 0.77344,-0.63082 2.2519,-1.83928 3.28545,-2.68547 2.76112,-2.26055 4.60563,-3.28219 7.37479,-4.08475 3.5711,-1.03499 5.08803,-2.56303 5.08803,-5.12531 0,-2.64964 -2.13362,-6.77015 -4.19771,-8.10675 -0.85122,-0.55122 -1.95591,-1.45491 -2.45485,-2.0082 -0.49894,-0.5533 -2.94829,-2.51777 -5.443,-4.3655 -4.67727,-3.46426 -8.36225,-6.79465 -10.7348,-9.70184 -1.42273,-1.74332 -1.84474,-5.5324 -0.84233,-7.56296 0.28513,-0.57758 0.98094,-1.9347 1.54623,-3.01583 0.5653,-1.08113 1.05803,-3.29264 1.09498,-4.91447 0.0628,-2.75564 -0.1639,-3.22108 -3.46063,-7.10598 -4.08493,-4.81372 -8.56665,-11.60062 -9.12223,-13.81426 -0.21139,-0.84223 -0.62699,-1.53132 -0.92356,-1.53132 -0.29656,0 -0.53921,-0.37712 -0.53921,-0.83804 0,-0.46092 -0.40655,-1.61755 -0.90344,-2.570302 -0.49689,-0.95275 -0.90512,-2.15411 -0.90717,-2.66968 -0.002,-0.51557 -0.22987,-1.19595 -0.50627,-1.51194 -0.2764,-0.316 -1.00454,-2.34352 -1.6181,-4.5056 -0.61355,-2.16208 -1.28286,-4.2032 -1.48735,-4.53583 -0.20449,-0.33263 -0.89468,-2.23768 -1.53376,-4.23344 -0.63908,-1.99577 -1.30965,-3.76475 -1.49015,-3.93106 -0.18051,-0.16631 -0.8475,-1.86725 -1.4822,-3.77986 -0.63471,-1.91261 -1.35246,-3.47748 -1.595,-3.47748 -0.24255,0 -0.62467,-0.73181 -0.84915,-1.62625 -0.22449,-0.89444 -0.93437,-2.36524 -1.57751,-3.268449 -0.64314,-0.9032 -1.16934,-1.81591 -1.16934,-2.02823 0,-0.75784 -4.7554,-6.80619 -7.04413,-8.95938 -3.99809,-3.76131 -5.91552,-5.27866 -7.16815,-5.67246 -0.66526,-0.20914 -1.34563,-0.56187 -1.51195,-0.78384 -0.56576,-0.7551 -4.71369,-2.45728 -5.98798,-2.45728 -0.69814,0 -1.26935,-0.27215 -1.26935,-0.60478 0,-0.33262 -0.63976,-0.60477 -1.4217,-0.60477 -0.78193,0 -2.21071,-0.27476 -3.17508,-0.61058 -0.96436,-0.33582 -3.52236,-0.86772 -5.68444,-1.18201 -19.5974,-2.8487 -21.22538,-2.99689 -33.26277,-3.02783 -12.05816,-0.031 -24.82539,1.11289 -27.35799,2.45116 -0.57759,0.30521 -1.64833,0.55492 -2.37944,0.55492 -1.718524,0 -8.493404,1.83956 -9.240494,2.50904 -0.316,0.28317 -1.09132,0.51485 -1.72293,0.51485 -0.63162,0 -2.14205,0.44051 -3.35652,0.97892 -1.21447,0.5384 -3.02457,1.31842 -4.02245,1.73339 -4.91435,2.04359 -5.74539,2.45044 -5.74539,2.81276 0,0.21537 -0.67899,0.562 -1.50885,0.77028 -1.60781,0.40354 -11.35648,6.36088 -11.69547,7.14702 -0.11087,0.25714 -0.58714,0.46752 -1.05836,0.46752 -0.47122,0 -0.86288,0.20411 -0.87036,0.45358 -0.008,0.24947 -1.35691,1.40611 -2.99875,2.57031 -3.36237,2.38419 -14.99374,13.995109 -18.1753,18.143339 -1.14801,1.49682 -2.29344,2.81222 -2.54538,2.92309 -0.25195,0.11088 -0.45808,0.56446 -0.45808,1.00796 0,0.44351 -0.20412,0.89709 -0.45359,1.00797 -0.6582,0.29253 -4.384637,5.8758 -4.384637,6.56944 0,0.3229 -0.229294,0.58709 -0.509543,0.58709 -0.280249,0 -1.028661,1.01641 -1.663139,2.25869 -0.634477,1.24228 -1.457585,2.58627 -1.829129,2.98665 -1.2454,1.34205 -7.038922,13.549632 -6.626273,13.962282 0.224182,0.22418 1.723175,-0.0596 3.331097,-0.63073 1.607921,-0.57108 3.295191,-1.0382 3.74949,-1.03804 0.454298,1.7e-4 1.997733,1.36092 3.429856,3.02389 2.586328,3.00324 3.958918,3.56458 6.022428,2.46297 0.57759,-0.30835 1.45838,-0.71485 1.95732,-0.90332 0.95205,-0.35964 3.11233,-1.64838 3.62867,-2.16472 0.16631,-0.16632 1.52706,-1.24484 3.02389,-2.39672 1.49682,-1.15188 2.81222,-2.30852 2.92309,-2.57031 0.11088,-0.26178 0.56446,-0.47597 1.00796,-0.47597 0.44351,0 0.90278,-0.28923 1.02062,-0.64273 0.43242,-1.29726 9.3165,-1.93744 17.17439,-1.23757 l 7.50582,0.66851 2.42022,2.42023 c 2.5143,2.5143 4.17795,2.99522 5.56459,1.60858 3.69736,-3.69735 6.95569,-2.38098 10.48947,4.23777 l 1.66778,3.12372 -2.2078,2.57932 c -1.70512,1.99204 -2.20781,3.10536 -2.20781,4.88958 0,1.27064 0.27215,2.31025 0.60478,2.31025 0.33262,0 0.60477,0.95253 0.60477,2.11673 0,1.16419 -0.20411,2.11884 -0.45358,2.12144 -0.65985,0.007 -1.96553,3.04213 -1.96553,4.5692 0,1.61926 2.78133,4.49772 4.34595,4.49772 3.05712,0 6.692204,-3.33274 10.945574,-10.03518 4.36394,-6.87668 7.16247,-8.34478 10.32322,-5.41551 1.78824,1.65729 2.05841,3.58818 0.69309,4.9535 -1.16094,1.16094 -1.17235,5.0772 -0.0192,6.60175 0.97974,1.29532 1.26534,7.24325 0.37425,7.79397 -0.30369,0.18769 -0.73583,1.42843 -0.96033,2.7572 -0.22449,1.32877 -0.58836,2.41696 -0.80859,2.41821 -0.22023,0.001 -0.92648,1.2811 -1.56941,2.84413 -1.24093,3.01673 -3.00281,5.37257 -4.70377,6.28944 -1.06679,0.57505 -5.92042,-1.08194 -5.92042,-2.02117 0,-0.25417 -0.29905,-0.46212 -0.66457,-0.46212 -0.62031,0 -3.892774,-1.30404 -6.012274,-2.39582 -0.5123,-0.2639 -2.96165,-0.67947 -5.443,-0.92349 -2.48134,-0.24401 -4.78368,-0.62883 -5.11631,-0.85515 -1.57787,-1.07355 -8.66235,-2.92579 -13.36821,-3.49512 -4.88083,-0.5905 -11.73007,3.20856 -11.73007,6.50629 0,0.60055 -0.27215,1.26011 -0.60477,1.46568 -0.70229,0.43404 -0.84308,15.58871 -0.1512,16.27483 0.24947,0.24739 0.80115,2.67406 1.22595,5.3926 1.24927,7.99475 1.44892,8.87385 2.0153,8.87385 0.29624,0 0.53861,0.53592 0.53861,1.19093 0,2.13625 2.59857,6.29919 6.09763,9.7685 3.72453,3.69285 14.49559,11.09844 17.08873,11.74928 0.88524,0.22219 1.60953,0.5872 1.60953,0.81115 0,0.22395 1.15664,0.73241 2.5703,1.12991 7.41076,2.08378 10.258864,1.72601 13.746354,-1.72679 1.3373,-1.324 2.43145,-2.66892 2.43145,-2.98869 0,-1.25677 3.07175,-0.49386 4.79533,1.19099 1.74111,1.70201 2.02002,2.36119 2.70453,6.3921 1.40131,8.25196 2.16899,9.80903 5.66511,11.49049 1.24128,0.59698 2.72943,1.31753 3.30702,1.60122 0.57758,0.28369 1.71816,0.51579 2.53461,0.51579 0.81645,0 1.63359,0.2413 1.81586,0.53622 0.18227,0.29492 1.35497,0.71959 2.60599,0.9437 2.33596,0.41848 5.57935,1.34075 7.7176,2.19454 0.66526,0.26563 1.88993,0.6593 2.7215,0.87483 0.83157,0.21552 3.21525,1.19457 5.29707,2.17565 2.82443,1.33105 4.20376,2.43084 5.43458,4.33317 0.9072,1.40217 2.19755,3.0556 2.86743,3.6743 1.35566,1.25206 5.98502,3.46566 9.68487,4.63094 1.33051,0.41906 2.96341,0.96703 3.62866,1.21772 2.25948,0.85145 10.90296,2.40055 13.31893,2.38704 3.34862,-0.0187 6.94113,-3.42542 6.94113,-6.58214 0,-0.65732 0.27215,-1.36334 0.60477,-1.56891 0.33263,-0.20558 0.60478,-0.88257 0.60478,-1.50444 0,-1.79672 1.70416,-3.0314 4.18411,-3.0314 2.9301,0 4.88756,1.64372 4.88756,4.10418 0,1.01507 0.46194,2.65048 1.02655,3.63425 1.01056,1.76079 5.55338,4.96191 7.04164,4.96191 0.41886,0 1.0201,0.25636 1.3361,0.5697 0.8235,0.81656 7.51944,1.79548 9.6547,1.41146 0.99321,-0.17862 2.26298,-0.72233 2.82171,-1.20825 0.91541,-0.79611 1.16428,-0.64839 2.51646,1.4936 1.07562,1.70388 2.50066,2.84359 5.03191,4.02434 1.94222,0.906 3.93954,1.88631 4.43848,2.17848 1.27091,0.7442 5.8969,0.73096 6.35991,-0.0182 v 0 z m -7.48853,-46.12648 c 3.24543,-1.13076 4.15251,-2.11986 4.15251,-4.528 0,-2.71847 -2.90672,-5.56678 -5.70312,-5.58851 -1.02113,-0.008 -2.88519,-0.25324 -4.14234,-0.54511 -1.41792,-0.3292 -3.91359,-0.2787 -6.5734,0.13299 -6.902,1.06834 -9.72712,4.9593 -6.17784,8.50858 0.87693,0.87693 2.22162,1.59441 2.9882,1.59441 0.76658,0 1.56198,0.27215 1.76755,0.60478 0.53644,0.86797 11.0791,0.73 13.68844,-0.17914 z" />
  <path
	 style="fill:#000000"
	 d="m 198.49463,148.54775 c 0.27,-2.01303 0.11224,-2.41959 -1.21444,-3.1296 -1.18914,-0.63641 -1.95471,-0.66615 -3.47804,-0.13512 -2.69986,0.94118 -4.67024,0.91736 -3.70806,-0.0448 0.39915,-0.39915 0.72573,-1.2465 0.72573,-1.883 0,-1.03648 -0.29984,-1.11334 -2.87269,-0.73646 -1.57999,0.23145 -3.13124,0.67057 -3.44724,0.97584 -0.31599,0.30526 -0.90846,0.55502 -1.31658,0.55502 -0.63912,0 -4.32385,1.59381 -12.13314,5.24813 -1.06079,0.49638 -2.42154,0.78542 -3.02389,0.64229 -1.01315,-0.24074 -1.00458,-0.29868 0.11438,-0.77357 4.39849,-1.86673 3.41468,-4.2371 -2.96122,-7.13469 -1.73719,-0.78948 -2.17871,-1.24864 -1.6801,-1.74725 0.65019,-0.6502 5.76667,0.53921 8.71536,2.02602 1.37041,0.691 7.11434,0.68719 7.11434,-0.005 0,-0.29384 0.47627,-0.69825 1.05836,-0.8987 0.5821,-0.20044 1.88077,-0.87235 2.88594,-1.49312 1.00516,-0.62077 3.10798,-1.32068 4.67293,-1.55536 1.56495,-0.23468 3.00384,-0.6831 3.19754,-0.99652 0.19369,-0.3134 1.1365,-0.56983 2.09512,-0.56983 0.95862,0 1.91115,-0.27215 2.11672,-0.60478 0.20558,-0.33262 1.39188,-0.60477 2.63624,-0.60477 2.96076,0 3.71393,-0.86011 3.71393,-4.24125 0,-3.33288 -1.61829,-5.17911 -6.35017,-7.24462 -1.66314,-0.72597 -3.82304,-1.7498 -4.79978,-2.27517 -2.3814,-1.28091 -9.3244,-1.23321 -13.86214,0.0952 -1.94836,0.57039 -3.69465,0.88489 -3.88065,0.6989 -0.43757,-0.43758 -0.66097,-0.26963 5.30641,-3.98932 3.80842,-2.37393 5.89115,-3.27693 8.03677,-3.48447 2.78597,-0.26947 2.99307,-0.17733 5.443,2.42158 1.40076,1.48594 3.41614,3.29827 4.47861,4.0274 2.12998,1.46171 5.88214,1.8839 6.98059,0.78545 1.13314,-1.13314 2.8808,-0.84785 2.8808,0.47026 0,0.64563 -0.27215,1.34206 -0.60477,1.54764 -0.33263,0.20557 -0.60478,2.791 -0.60478,5.74538 0,2.95439 -0.26487,5.53531 -0.5886,5.73538 -1.23169,0.76123 -4.24962,9.27889 -4.24962,11.99394 0,0.8115 -0.38412,1.79423 -0.85359,2.18386 -0.71681,0.5949 -0.80386,0.3377 -0.54327,-1.60517 z" />
  <path
	 style="fill:none;stroke:#000000;stroke-width:9;"
	 d="M 297.63695,282.66639 279.67597,212.38831 237.98928,201.56597" />
  <path
	 style="fill:none;stroke:#000000;stroke-width:7;stroke-linejoin:round;"
	 d="m 276.46713,231.33586 23.94798,156.51713 57.08669,0.42765 23.7306,-156.94478 z" />
  <path
	 style="fill:none;stroke:#000000;stroke-width:3;"
	 d="m 282.88177,289.06759 c 0,0 21.80977,-16.89188 44.90246,0.21382 23.09269,17.10569 48.75123,-8.76667 48.75123,-8.76667" />
  <path
	 style="fill:#000000"
	 d="m 318.93187,343.80466 -2.21507,-1.01578 0.71247,-1.39654 c 0.39185,-0.7681 0.71246,-1.53109 0.71246,-1.69554 0,-0.16444 -4.21609,-2.91524 -9.36908,-6.11288 l -9.36908,-5.81389 0.004,-2.12132 0.004,-2.12132 7.56856,-4.68458 c 4.16271,-2.57652 7.70087,-4.6843 7.86259,-4.68395 0.31859,6.7e-4 2.11212,2.70853 2.30015,3.47273 0.0702,0.28525 -2.28353,1.88114 -6.02439,4.08471 -3.37677,1.9891 -6.13691,3.75398 -6.13364,3.92196 0.005,0.25493 11.62407,7.3051 14.60538,8.86216 l 0.91794,0.47942 7.0266,-14.59951 7.02659,-14.59951 1.95496,0.85823 c 1.07523,0.47203 2.08717,0.98568 2.24877,1.14144 0.1616,0.15576 -0.0515,0.9601 -0.4736,1.78743 -0.48,0.94089 -0.63244,1.58559 -0.40704,1.72145 0.1982,0.11946 4.74579,2.92189 10.10575,6.22761 l 9.74537,6.01041 -0.002,2.12132 -0.002,2.12132 -7.56856,4.68458 c -4.16276,2.57652 -7.70092,4.68173 -7.86264,4.67823 -0.27284,-0.006 -2.59212,-3.30982 -2.59212,-3.69261 0,-0.0944 2.86961,-1.86703 6.37691,-3.93917 3.50729,-2.07215 6.28247,-3.86617 6.16704,-3.98672 -0.62982,-0.65781 -16.64809,-9.81396 -16.84786,-9.63035 -0.13093,0.12033 -3.28905,6.58274 -7.01804,14.36091 -3.72899,7.77818 -6.8834,14.23966 -7.0098,14.35884 -0.12639,0.11919 -1.22659,-0.2404 -2.44487,-0.79908 z" />
</svg>
